<?xml version="1.0" encoding="utf-8"?>
<!-- Generator: Adobe Illustrator 16.0.0, SVG Export Plug-In . SVG Version: 6.00 Build 0)  -->
<!DOCTYPE svg PUBLIC "-//W3C//DTD SVG 1.1//EN" "http://www.w3.org/Graphics/SVG/1.1/DTD/svg11.dtd">
<svg version="1.1" id="Layer_1" xmlns="http://www.w3.org/2000/svg" xmlns:xlink="http://www.w3.org/1999/xlink" x="0px" y="0px"
	 width="100px" height="100px" viewBox="0 0 100 100" enable-background="new 0 0 100 100" xml:space="preserve">
<rect x="-0.026" width="100.499" height="101.462"/>
<g id="layer1" transform="translate(-6.809 -593.56)" inkscape:label="Layer 1" inkscape:groupmode="layer">
	<path id="path2830" fill="#414042" d="M24.476,626.815c-0.857-0.982-2.972-1.379-2.761-2.847c0.196-3.564,0.545-7.11,0.847-10.658
		c0.248-2.542,0.415-5.108,0.976-7.606c0.222-1.221,1.887-2.714,1.039-3.719c-0.62-1.145-1.16-2.326-2.021-3.314
		c-0.824-1.065,0.877-1.742,1.741-1.634c1.213,0.015,2.44-0.173,3.671-0.079c0.881,0.182,2.954-0.414,2.894,0.869
		c-0.532,1.484-1.642,2.7-2.127,4.2c-0.204,1.343,1.237,2.205,1.382,3.527c0.411,2.78,0.743,5.583,1.007,8.39
		c0.308,1.777,0.27,3.596,0.61,5.361c0.143,1.761,0.383,3.514,0.529,5.275c-1.036,1.021-2.215,1.861-3.259,2.871
		c-0.865,0.573-1.659,2.063-2.58,0.796C25.772,627.768,25.125,627.292,24.476,626.815L24.476,626.815z"/>
</g>
<g id="layer1_1_" transform="translate(-189.9 -222.14)">
	<path id="path4834" fill="#414042" d="M251.962,279.828c-1.566-0.057-3.928-0.213-5.25-0.34c-5.343-0.516-5.009-0.449-5.686-1.17
		c-0.339-0.363-0.369-0.52-0.416-2.092c-0.03-0.939,0.021-2.426,0.115-3.307c0.179-1.695,0.473-13.668,0.503-20.554
		c0.017-4.187-0.123-5.834-0.6-6.924l-0.22-0.51l-1.572,1.649c-1.261,1.323-1.653,1.651-1.988,1.66
		c-0.404,0.013-1.866-0.629-3.329-1.463c-0.402-0.227-1.058-0.599-1.459-0.828c-0.4-0.227-1.046-0.578-1.435-0.779
		c-1.51-0.786-1.781-1.786-0.862-3.193c0.301-0.46,0.579-0.869,0.621-0.908c0.039-0.041,0.256-0.417,0.48-0.836
		c0.581-1.088,2.38-3.838,2.836-4.336c0.1-0.109,0.182-0.239,0.182-0.285c0-0.134,0.785-1.187,2.304-3.087
		c1.196-1.494,1.581-1.87,2.507-2.437c0.603-0.368,1.551-0.838,2.112-1.045c0.563-0.208,1.383-0.544,1.823-0.75
		c0.439-0.205,1.276-0.563,1.854-0.792c1.054-0.419,3.78-1.798,4.04-2.043c0.079-0.072,0.288-0.131,0.47-0.131
		c0.183,0,0.455-0.135,0.608-0.299c0.471-0.507,1.012-0.559,2.078-0.196c1.47,0.498,4.559,0.744,6.364,0.508
		c0.781-0.102,1.788-0.311,2.234-0.464c1.02-0.349,1.603-0.351,2.047-0.01c0.191,0.147,1.168,0.665,2.171,1.151
		c1.908,0.926,5.111,2.445,5.613,2.66c3.609,1.553,4.108,1.988,6.004,5.242c0.448,0.766,0.936,1.571,1.084,1.788
		c0.149,0.215,0.59,1.036,0.983,1.822c0.391,0.785,1.251,2.478,1.915,3.76c0.73,1.42,1.2,2.496,1.192,2.751
		c-0.012,0.397-0.647,1.258-0.934,1.258c-0.064,0-0.398,0.175-0.737,0.39c-0.66,0.419-1.853,1.076-3.584,1.97
		c-1.482,0.769-2.188,0.769-2.919-0.001c-0.288-0.306-0.693-0.782-0.89-1.057c-0.434-0.596-1.442-1.595-1.618-1.595
		c-0.227,0-0.421,0.547-0.734,2.065c-0.46,2.231-0.551,3.904-0.404,7.629c0.072,1.844,0.189,6.107,0.268,9.476
		c0.077,3.366,0.207,7.765,0.292,9.776c0.113,2.611,0.113,3.787-0.002,4.109c-0.231,0.67-0.938,0.938-3.053,1.154
		c-7.1,0.727-7.618,0.766-9.986,0.744C255.787,279.952,253.524,279.893,251.962,279.828L251.962,279.828z"/>
</g>
<g id="layer1_2_" transform="translate(-148.55 -45.566)" inkscape:label="Camada 1" inkscape:groupmode="layer">
	<path id="path5066" sodipodi:nodetypes="csssszscscsccsssszsssssscsz" fill="#414042" stroke="#414042" d="M155.742,139.701
		c0.069-0.673,1.252-9.686,1.179-15.035c-0.024-1.734,0.624-3.327,1.028-4.971c0.406-1.654,1.608-3.085,1.889-4.735
		c0.249-1.46,0.221-2.964-0.075-4.447c-0.566-2.843-0.888-6.819-1.157-8.622c-0.269-1.804-0.574-1.471-0.381-2.126
		c0.367-1.245,1.104-2.294,1.198-3.699c0.366-1.281,0.3-2.604,0.107-3.908c-0.077-0.526-0.652-1.521-0.045-1.733
		c0.666-0.301,1.325-0.328,1.357,0.639c0.036,1.073-0.111,2.44,0.451,3.228c3.708,2.773,10.06,2.205,14.136,0.75
		c0.684-1.451,0.48-3.489,1.525-4.658c0.32-0.356,1.596,0.096,1.174,0.974c-0.53,1.104-0.978,2.365-1.061,3.593
		c-0.13,1.94,1.468,3.468,2.139,5.201c0.49,1.263-0.52,2.685-0.601,4.482c-0.083,1.798-0.633,4.142-0.742,6.241
		c-0.092,1.827-0.15,3.682,0.113,5.478c0.387,2.657,1.561,5.151,1.908,7.836c0.285,2.223,0.155,4.469,0.179,6.702
		c0.038,3.347-0.303,6.695-0.811,9.993c-0.138,0.883-0.295,1.102-1.208,0.971c-3.156-0.448-6.348-0.871-9.551-1.013
		c-4.038-0.284-8.096-0.247-12.141-0.204C156.106,140.64,155.672,140.372,155.742,139.701L155.742,139.701z"/>
</g>
<g id="layer1_3_" transform="translate(-164.11935,-373.19468)" inkscape:label="Layer 1" inkscape:groupmode="layer">
	<path id="path7" inkscape:connector-curvature="0" fill="#414042" d="M241.03,448.95c0.67-0.237,1.206-0.657,1.708-1.127
		c0.679-0.638,1.227-1.393,1.793-2.126c0.999-1.288,2.035-2.531,3.434-3.427c2.158-1.383,4.549-1.837,7.063-1.773
		c0.673,0.017,1.184,0.422,1.619,0.908c0.638,0.712,1.044,1.559,1.376,2.444c0.78,2.098,1.179,4.277,1.387,6.499
		c0.228,2.414,0.245,4.831,0.002,7.245c-0.227,2.253-0.611,4.478-1.45,6.595c-0.365,0.914-0.826,1.771-1.555,2.457
		c-0.504,0.479-1.09,0.711-1.791,0.697c-2.434-0.053-4.754-0.504-6.815-1.897c-1.151-0.776-2.069-1.781-2.911-2.871
		c-0.688-0.888-1.354-1.794-2.175-2.572c-0.462-0.439-0.961-0.825-1.545-1.102c-0.192-0.094-0.312-0.107-0.438,0.111
		c-0.185,0.318-0.49,0.455-0.862,0.455c-2.676-0.001-5.353-0.001-8.03,0c-0.341,0-0.639-0.112-0.817-0.403
		c-0.141-0.226-0.27-0.167-0.446-0.075c-0.784,0.404-1.429,0.983-1.986,1.654c-0.782,0.938-1.516,1.916-2.305,2.849
		c-1.882,2.229-4.302,3.436-7.194,3.716c-0.535,0.054-1.072,0.087-1.607,0.128c-1.015,0.077-1.796-0.319-2.389-1.144
		c-0.892-1.239-1.432-2.631-1.807-4.096c-0.773-3.017-0.981-6.096-0.918-9.196c0.051-2.51,0.309-4.995,0.99-7.423
		c0.356-1.274,0.804-2.512,1.561-3.614c0.208-0.305,0.443-0.585,0.727-0.82c0.434-0.363,0.916-0.567,1.505-0.565
		c1.927,0.008,3.792,0.302,5.566,1.08c1.67,0.73,2.935,1.956,4.067,3.343c0.655,0.802,1.235,1.667,1.93,2.443
		c0.508,0.569,1.069,1.07,1.744,1.438c0.174,0.094,0.252,0.115,0.298-0.14c0.134-0.708,0.531-1.009,1.255-1.009
		c2.53-0.003,5.061-0.003,7.59,0c0.893,0,1.214,0.269,1.392,1.16c0.011,0.047,0.021,0.092,0.037,0.16V448.95z"/>
</g>
</svg>
